<?xml version="1.0" encoding="utf-8"?>
<!-- Generator: Adobe Illustrator 19.2.0, SVG Export Plug-In . SVG Version: 6.00 Build 0)  -->
<svg version="1.1" id="Layer_1" xmlns="http://www.w3.org/2000/svg" xmlns:xlink="http://www.w3.org/1999/xlink" x="0px" y="0px"
	 viewBox="0 0 96 64" style="enable-background:new 0 0 96 64;" xml:space="preserve">
<path d="M69.9,47.5H18.1c-2,0-3.6-1.6-3.6-3.6V20.1c0-2,1.6-3.6,3.6-3.6H70c2,0,3.6,1.6,3.6,3.6V44C73.5,45.9,71.9,47.5,69.9,47.5z
	 M18.1,19.5c-0.3,0-0.6,0.3-0.6,0.6V44c0,0.3,0.3,0.6,0.6,0.6H70c0.3,0,0.6-0.3,0.6-0.6V20.1c0-0.3-0.3-0.6-0.6-0.6H18.1z"/>
<path d="M79.1,38H73c-0.5,0-0.9-0.4-0.9-0.9V26.9c0-0.5,0.4-0.9,0.9-0.9h6.1c0.5,0,0.9,0.4,0.9,0.9V37C80,37.6,79.6,38,79.1,38z"/>
<rect x="20" y="22" width="12" height="20"/>
</svg>
