<?xml version="1.0" encoding="utf-8"?>
<!-- Generator: Adobe Illustrator 19.2.0, SVG Export Plug-In . SVG Version: 6.00 Build 0)  -->
<svg version="1.2" baseProfile="tiny" id="Layer_1" xmlns="http://www.w3.org/2000/svg" xmlns:xlink="http://www.w3.org/1999/xlink"
	 x="0px" y="0px" viewBox="0 0 64 64" xml:space="preserve">
<path d="M50,33.5v-3l-4.8-1.1c-0.4-1.8-1.1-3.5-2.1-5l2.6-4.1l-2.1-2.1l-4.1,2.6c-1.5-1-3.2-1.7-5-2.1L33.5,14h-3l-1.1,4.8
	c-1.8,0.4-3.5,1.1-5,2.1l-4.1-2.6l-2.1,2.1l2.6,4.1c-1,1.5-1.7,3.2-2.1,5L14,30.5v3l4.8,1.1c0.4,1.8,1.1,3.5,2.1,5l-2.6,4.1l2.1,2.1
	l4.1-2.6c1.5,1,3.2,1.7,5,2.1l1.1,4.8h3l1.1-4.7c1.8-0.4,3.5-1.1,5-2.1l4.1,2.6l2.1-2.1l-2.6-4.1c1-1.5,1.7-3.2,2.1-5L50,33.5z
	 M32,42.5c-5.8,0-10.5-4.7-10.5-10.5c0-5.8,4.7-10.5,10.5-10.5c5.8,0,10.5,4.7,10.5,10.5C42.5,37.8,37.8,42.5,32,42.5z"/>
</svg>
