<?xml version="1.0" encoding="utf-8"?>
<!-- Generator: Adobe Illustrator 19.2.0, SVG Export Plug-In . SVG Version: 6.00 Build 0)  -->
<svg version="1.2" baseProfile="tiny" id="Layer_1" xmlns="http://www.w3.org/2000/svg" xmlns:xlink="http://www.w3.org/1999/xlink"
	 x="0px" y="0px" viewBox="0 0 64 64" xml:space="preserve">
<g>
	<path d="M36,24.4v-10c0-2.2-1.8-4-4-4s-4,1.8-4,4v9.5l11.6,11.6L52,38v-4L36,24.4z"/>
	<path d="M13.9,18.1l9.2,9.2L12,34v4l16-3.2v8.7c0,0.4,0.1,0.7,0.2,1.1L20,50v4l12-4l12,4v-4l-8.2-5.4c0.1-0.4,0.2-0.7,0.2-1.1v-3.3
		l9.9,9.9l2.1-2.1l-32-32L13.9,18.1z"/>
</g>
</svg>
