<?xml version="1.0" encoding="utf-8"?>
<!-- Generator: Adobe Illustrator 19.2.0, SVG Export Plug-In . SVG Version: 6.00 Build 0)  -->
<svg version="1.2" baseProfile="tiny" id="Layer_1" xmlns="http://www.w3.org/2000/svg" xmlns:xlink="http://www.w3.org/1999/xlink"
	 x="0px" y="0px" viewBox="0 0 64 64" xml:space="preserve">
<path d="M45.3,37.8c-2.3,5.1-7.3,8.7-13.3,8.7c-4,0-7.7-1.7-10.3-4.3l3.6-2.6l-11-5.1l1.2,12l3.7-2.6c3.2,3.4,7.7,5.6,12.8,5.6
	c7.1,0,13.3-4.3,16-10.4L45.3,37.8z"/>
<path d="M49.7,29.5l-1.2-12l-3.7,2.6c-3.2-3.4-7.7-5.6-12.8-5.6c-7.1,0-13.3,4.3-16,10.4l2.7,1.2c2.3-5.1,7.3-8.7,13.3-8.7
	c4,0,7.7,1.7,10.3,4.3l-3.6,2.6L49.7,29.5z"/>
</svg>
