<?xml version="1.0" encoding="utf-8"?>
<!-- Generator: Adobe Illustrator 19.2.0, SVG Export Plug-In . SVG Version: 6.00 Build 0)  -->
<svg version="1.2" baseProfile="tiny" id="Layer_1" xmlns="http://www.w3.org/2000/svg" xmlns:xlink="http://www.w3.org/1999/xlink"
	 x="0px" y="0px" viewBox="0 0 64 64" xml:space="preserve">
<path d="M32,23c-5,0-9,4-9,9c0,5,4,9,9,9c5,0,9-4,9-9C41,27,37,23,32,23z"/>
<path d="M18,34h-8c-1.1,0-2-0.9-2-2v0c0-1.1,0.9-2,2-2h8c1.1,0,2,0.9,2,2v0C20,33.1,19.1,34,18,34z"/>
<path d="M54,34h-8c-1.1,0-2-0.9-2-2v0c0-1.1,0.9-2,2-2h8c1.1,0,2,0.9,2,2v0C56,33.1,55.1,34,54,34z"/>
<path d="M30,18v-8c0-1.1,0.9-2,2-2h0c1.1,0,2,0.9,2,2v8c0,1.1-0.9,2-2,2h0C30.9,20,30,19.1,30,18z"/>
<path d="M30,54v-8c0-1.1,0.9-2,2-2h0c1.1,0,2,0.9,2,2v8c0,1.1-0.9,2-2,2h0C30.9,56,30,55.1,30,54z"/>
<path d="M20.7,23.5L15,17.9c-0.8-0.8-0.8-2,0-2.8l0,0c0.8-0.8,2-0.8,2.8,0l5.7,5.7c0.8,0.8,0.8,2,0,2.8l0,0
	C22.7,24.3,21.5,24.3,20.7,23.5z"/>
<path d="M46.1,49l-5.7-5.7c-0.8-0.8-0.8-2,0-2.8l0,0c0.8-0.8,2-0.8,2.8,0l5.7,5.7c0.8,0.8,0.8,2,0,2.8l0,0
	C48.2,49.8,46.9,49.8,46.1,49z"/>
<path d="M40.5,20.7l5.7-5.7c0.8-0.8,2-0.8,2.8,0l0,0c0.8,0.8,0.8,2,0,2.8l-5.7,5.7c-0.8,0.8-2,0.8-2.8,0l0,0
	C39.7,22.7,39.7,21.5,40.5,20.7z"/>
<path d="M15,46.1l5.7-5.7c0.8-0.8,2-0.8,2.8,0l0,0c0.8,0.8,0.8,2,0,2.8L17.9,49c-0.8,0.8-2,0.8-2.8,0l0,0
	C14.2,48.2,14.2,46.9,15,46.1z"/>
</svg>
