<?xml version="1.0" encoding="utf-8"?>
<!-- Generator: Adobe Illustrator 19.2.0, SVG Export Plug-In . SVG Version: 6.00 Build 0)  -->
<svg version="1.2" baseProfile="tiny" id="Layer_1" xmlns="http://www.w3.org/2000/svg" xmlns:xlink="http://www.w3.org/1999/xlink"
	 x="0px" y="0px" viewBox="0 0 64 64" xml:space="preserve">
<rect x="27" y="41" width="10" height="3"/>
<rect x="28" y="46" width="8" height="3"/>
<path d="M32,13c-7.2,0-13,5.8-13,13c0,4.4,2.2,8.3,5.6,10.7l1.1,2.3h5.5c0.3,0,0.6,0,0.8,0s0.6,0,0.8,0h5.5l1.1-2.3
	C42.8,34.4,45,30.5,45,26C45,18.9,39.2,13,32,13z M37.1,33.4L36.4,35h-3.8c-0.2,0-0.4,0-0.6,0s-0.4,0-0.6,0h-3.8l-0.7-1.6
	C24.5,31.8,23,29.1,23,26c0-5,4-9,9-9c5,0,9,4,9,9C41,29.1,39.5,31.8,37.1,33.4z"/>
</svg>
