<?xml version="1.0" encoding="utf-8"?>
<!-- Generator: Adobe Illustrator 19.2.0, SVG Export Plug-In . SVG Version: 6.00 Build 0)  -->
<svg version="1.2" baseProfile="tiny" id="Layer_1" xmlns="http://www.w3.org/2000/svg" xmlns:xlink="http://www.w3.org/1999/xlink"
	 x="0px" y="0px" viewBox="0 0 64 64" xml:space="preserve">
<g>
	<rect x="41.3" y="39.6" transform="matrix(0.7071 -0.7071 0.7071 0.7071 -19.3542 45.5553)" width="8" height="13"/>
	<path d="M14.4,14.8C8.2,21,8.1,31.2,14.4,37.4c5.7,5.7,14.5,6.4,20.9,1.5l3.3,3.3l2.8-2.8l-3.3-3.3c5.6-7.1,4.5-15.4-1.2-21.2
		C30.7,8.7,20.7,8.6,14.4,14.8z M34,34.3c-4.5,4.5-11.9,4.5-16.5,0s-4.5-11.9,0-16.5c4.5-4.5,11.9-4.5,16.5,0S38.6,29.7,34,34.3z"/>
</g>
</svg>
