<?xml version="1.0" encoding="utf-8"?>
<!-- Generator: Adobe Illustrator 19.2.0, SVG Export Plug-In . SVG Version: 6.00 Build 0)  -->
<svg version="1.2" baseProfile="tiny" id="Layer_1" xmlns="http://www.w3.org/2000/svg" xmlns:xlink="http://www.w3.org/1999/xlink"
	 x="0px" y="0px" viewBox="0 0 64 64" xml:space="preserve">
<path d="M48.4,46.5l-9.3-9.3c2-2.4,3.2-5.5,3.2-8.8c0-7.7-6.2-13.9-13.9-13.9s-13.9,6.2-13.9,13.9s6.2,13.9,13.9,13.9
	c3.3,0,6.4-1.2,8.8-3.2l9.3,9.3c0.3,0.3,0.9,0.3,1.2,0l0.7-0.7C48.7,47.4,48.7,46.8,48.4,46.5z M28.4,39.6c-6.2,0-11.2-5-11.2-11.2
	s5-11.2,11.2-11.2s11.2,5,11.2,11.2S34.5,39.6,28.4,39.6z"/>
</svg>
