<?xml version="1.0" encoding="utf-8"?>
<!-- Generator: Adobe Illustrator 19.2.0, SVG Export Plug-In . SVG Version: 6.00 Build 0)  -->
<svg version="1.2" baseProfile="tiny" id="Layer_2" xmlns="http://www.w3.org/2000/svg" xmlns:xlink="http://www.w3.org/1999/xlink"
	 x="0px" y="0px" viewBox="0 0 64 64" xml:space="preserve">
<path fill="#FFFFFF" d="M24.1,30.5c0.2-1.1,0.6-2.1,1.2-3L14,16.2c-3.4,3.9-5.6,8.9-6,14.4L24.1,30.5z"/>
<path fill="#FFFFFF" d="M27.3,25.4c0.9-0.6,1.7-1,2.7-1.2v-16c-5,0.3-10.3,2.5-14.2,5.9L27.3,25.4z"/>
<path fill="#FFFFFF" d="M25.4,36.5c-0.6-0.9-1-1.9-1.2-3L8,33.5C8.4,39,10.6,44,14,47.9L25.4,36.5z"/>
<path fill="#FFFFFF" d="M39.9,33.5c-0.2,1.1-0.6,2.1-1.2,3L50,47.9C53.4,44,55.6,39,56,33.5L39.9,33.5z"/>
<path fill="#FFFFFF" d="M38.6,27.5c0.6,0.9,1,1.9,1.2,3l16.1,0C55.6,25,53.4,20,50,16.2L38.6,27.5z"/>
<path fill="#FFFFFF" d="M36.2,38.6c-0.9,0.6-1.2,1-3.2,1.2V56c6-0.3,10.7-2.5,14.5-6L36.2,38.6z"/>
<path fill="#FFFFFF" d="M30,39.9c-1-0.2-1.9-0.6-2.7-1.2L15.7,50c3.9,3.4,9.3,5.6,14.3,6V39.9z"/>
</svg>
