<?xml version="1.0" encoding="utf-8"?>
<!-- Generator: Adobe Illustrator 19.2.0, SVG Export Plug-In . SVG Version: 6.00 Build 0)  -->
<svg version="1.2" baseProfile="tiny" id="Layer_1" xmlns="http://www.w3.org/2000/svg" xmlns:xlink="http://www.w3.org/1999/xlink"
	 x="0px" y="0px" viewBox="0 0 64 64" xml:space="preserve">
<g>
	<path fill="#FFFFFF" d="M13.5,31.7C18.2,26.9,24.8,24,32,24c7.2,0,13.8,3,18.5,7.7l5.7-4.8C50.2,20.5,41.5,16.5,32,16.5
		c-9.5,0-18.2,4-24.3,10.4L13.5,31.7z"/>
	<path fill="#FFFFFF" d="M16.9,34.6l5.8,4.8c2.5-2.2,5.7-3.5,9.3-3.5c3.6,0,6.8,1.3,9.3,3.5l5.8-4.8c-3.9-3.8-9.2-6.2-15.1-6.2
		C26.1,28.4,20.8,30.8,16.9,34.6z"/>
	<path fill="#FFFFFF" d="M26.2,42.3l5.8,4.8l5.8-4.8c-1.6-1.2-3.6-1.9-5.8-1.9S27.8,41.1,26.2,42.3z"/>
</g>
</svg>
